<?xml version="1.0" standalone="no"?>
<!DOCTYPE svg PUBLIC "-//W3C//DTD SVG 20010904//EN"
 "http://www.w3.org/TR/2001/REC-SVG-20010904/DTD/svg10.dtd">
<svg version="1.0" xmlns="http://www.w3.org/2000/svg"
 width="512.000000pt" height="512.000000pt" viewBox="0 0 512.000000 512.000000"
 preserveAspectRatio="xMidYMid meet">

<g transform="translate(0.000000,512.000000) scale(0.100000,-0.100000)"
fill="#000000" stroke="none">
<path d="M2462 4525 c-125 -54 -190 -197 -147 -325 20 -60 80 -127 133 -149
l32 -13 0 -655 0 -655 -82 75 c-102 92 -113 97 -212 111 l-80 12 -251 434
-251 435 29 47 c63 101 43 244 -45 324 -56 50 -102 67 -178 67 -274 1 -360
-369 -114 -489 39 -19 72 -27 115 -28 l60 -1 228 -395 228 -395 -241 -5 c-220
-5 -244 -7 -276 -26 -31 -18 -72 -66 -82 -95 -2 -6 -114 53 -250 131 l-246
142 -4 73 c-7 112 -55 183 -153 226 -73 33 -149 30 -222 -7 -101 -52 -150
-142 -140 -257 17 -192 242 -299 400 -191 l37 25 283 -163 282 -164 3 -277 2
-277 -403 0 -404 0 -18 40 c-21 48 -82 105 -134 128 -20 8 -65 15 -101 16
-215 1 -334 -239 -205 -415 113 -156 359 -129 443 48 l16 33 403 0 403 0 -2
-277 -3 -277 -283 -163 -283 -163 -29 20 c-127 90 -296 51 -378 -88 -23 -40
-27 -58 -27 -122 0 -86 18 -132 73 -188 51 -50 105 -72 183 -72 151 0 259 111
259 266 l0 52 243 139 242 140 3 -76 c3 -103 8 -118 42 -136 26 -13 159 -15
1139 -13 1108 3 1110 3 1138 24 44 33 67 74 87 158 10 42 21 76 26 74 4 -2
127 -72 274 -157 l266 -154 0 -52 c0 -204 197 -329 376 -239 102 50 151 141
141 257 -17 191 -242 299 -400 191 l-37 -24 -290 167 c-161 94 -290 174 -290
182 0 8 30 130 67 272 l66 259 342 0 341 0 16 -33 c52 -110 173 -171 288 -146
73 16 134 60 169 121 77 135 36 286 -98 362 -46 25 -65 30 -120 30 -37 -1 -82
-8 -102 -16 -52 -23 -113 -80 -134 -128 l-18 -40 -319 0 c-360 0 -329 -10
-303 91 12 45 13 69 6 97 -24 88 -81 121 -208 122 l-83 0 0 59 c0 32 -3 72 -6
88 -6 29 -5 30 335 226 l341 197 57 -32 c217 -122 465 110 359 337 -43 94
-128 147 -236 148 -149 1 -268 -123 -259 -270 l3 -47 -360 -208 -361 -208
-265 2 -265 3 303 525 303 525 62 2 c158 5 270 129 256 283 -6 72 -35 128 -89
174 -42 36 -118 66 -168 66 -50 0 -126 -30 -168 -66 -64 -55 -86 -104 -87
-194 0 -73 11 -112 48 -165 13 -18 -12 -65 -312 -585 l-327 -565 -112 -3 -112
-3 0 690 0 689 23 6 c12 3 42 22 66 43 142 121 113 352 -54 429 -58 28 -160
32 -213 9z m149 -151 c37 -19 63 -74 54 -115 -9 -42 -58 -79 -105 -79 -45 0
-94 36 -104 76 -10 40 12 93 48 115 38 23 67 24 107 3z m-1129 -323 c28 -25
33 -36 33 -76 0 -40 -5 -51 -33 -76 -79 -71 -205 7 -172 107 25 76 112 99 172
45z m2291 9 c14 -11 31 -36 37 -55 10 -30 9 -41 -7 -72 -22 -47 -56 -65 -106
-59 -47 5 -72 27 -88 73 -30 93 87 174 164 113z m-3136 -842 c25 -21 45 -77
38 -109 -15 -65 -108 -101 -164 -63 -89 63 -36 204 72 190 21 -2 45 -10 54
-18z m3983 -7 c38 -38 47 -75 27 -117 -23 -47 -58 -68 -108 -61 -48 6 -68 21
-86 65 -42 102 90 191 167 113z m-2289 -562 c67 -61 137 -118 158 -127 32 -15
97 -17 544 -20 l507 -3 0 -64 0 -65 -890 0 c-982 0 -946 2 -992 -62 -14 -20
-49 -139 -99 -332 l-77 -301 -4 538 c-2 296 -1 541 1 543 2 2 168 4 368 4
l363 0 121 -111z m1505 -456 c-10 -36 -276 -1074 -276 -1078 0 -3 -463 -5
-1030 -5 -566 0 -1030 1 -1030 3 0 1 63 247 140 547 77 299 140 545 140 547 0
2 464 3 1031 3 977 0 1030 -1 1025 -17z m-3504 -132 c28 -25 33 -36 33 -76 0
-40 -5 -51 -33 -76 -79 -71 -199 3 -171 106 21 76 111 100 171 46z m4593 7
c53 -47 49 -134 -8 -168 -47 -29 -90 -26 -129 9 -28 25 -33 36 -33 76 0 40 5
51 33 76 41 37 98 40 137 7z m-4287 -1153 c38 -32 48 -72 28 -118 -15 -37 -58
-67 -96 -67 -37 0 -81 30 -96 67 -42 100 80 188 164 118z m3980 0 c38 -32 48
-72 28 -118 -15 -38 -59 -67 -98 -67 -40 0 -86 36 -97 76 -28 102 87 176 167
109z"/>
<path d="M1885 1735 c-30 -30 -32 -64 -4 -99 l20 -26 404 0 404 0 20 26 c28
35 26 69 -4 99 l-24 25 -396 0 -396 0 -24 -25z"/>
<path d="M1782 1397 c-29 -31 -29 -77 1 -105 23 -22 27 -22 418 -22 428 0 429
0 443 55 7 29 -15 79 -39 89 -9 3 -193 6 -409 6 l-393 0 -21 -23z"/>
</g>
</svg>
